<?xml version="1.0" standalone="no"?><!DOCTYPE svg PUBLIC "-//W3C//DTD SVG 1.1//EN" "http://www.w3.org/Graphics/SVG/1.1/DTD/svg11.dtd"><svg class="icon" width="200px" height="200.00px" viewBox="0 0 1024 1024" version="1.1" xmlns="http://www.w3.org/2000/svg"><path d="M810.666667 810.666667v-85.333334h85.333333v85.333334h85.333333v85.333333h-85.333333v85.333333h-85.333333v-85.333333h-85.333334v-85.333333h85.333334zM128 384h768V298.666667h-384.213333c-30.677333-0.170667-50.602667-14.506667-72.106667-41.088-2.944-3.669333-12.373333-15.914667-13.781333-17.749334C409.898667 219.733333 400.384 213.333333 384 213.333333H128v170.666667z m768 85.333333H128v341.333334h469.333333v85.333333H128a85.333333 85.333333 0 0 1-85.333333-85.333333V213.333333a85.333333 85.333333 0 0 1 85.333333-85.333333h256c47.786667 0 78.208 20.266667 108.757333 58.837333 2.048 2.56 11.136 14.378667 13.354667 17.152 6.741333 8.32 8.106667 9.344 5.973333 9.344H896a85.333333 85.333333 0 0 1 85.333333 85.333334v341.333333h-85.333333v-170.666667z" fill="#1296db" /></svg>