<?xml version="1.0" standalone="no"?><!DOCTYPE svg PUBLIC "-//W3C//DTD SVG 1.1//EN" "http://www.w3.org/Graphics/SVG/1.1/DTD/svg11.dtd"><svg class="icon" width="200px" height="200.00px" viewBox="0 0 1024 1024" version="1.1" xmlns="http://www.w3.org/2000/svg"><path d="M862.9 659.7a144.3 144.3 0 0 0-172.4-37.4L559 465.6l262-312.2a4 4 0 0 0-0.5-5.6l-49-41.2a4.3 4.3 0 0 0-2.6-0.9 4.1 4.1 0 0 0-3.1 1.4L512 409.6 258.2 107.1a4.1 4.1 0 0 0-3.1-1.4 4.3 4.3 0 0 0-2.6 0.9l-49 41.2a4 4 0 0 0-0.5 5.6l262 312.2-131.5 156.7a144 144 0 1 0 55.2 46.3l123.3-147 123.3 147a144 144 0 1 0 227.6-8.9zM326.6 798.6a71.9 71.9 0 0 1-55.2 25.7 71.2 71.2 0 0 1-46.2-16.8 72 72 0 0 1 46.3-127.2 71 71 0 0 1 46.2 16.8 72.2 72.2 0 0 1 8.9 101.5z m497.7-40a72 72 0 1 1-16.6-52.6 71.7 71.7 0 0 1 16.6 52.6z" fill="#1296db" /></svg>