<svg width="15" height="14" viewBox="0 0 15 14" fill="none" xmlns="http://www.w3.org/2000/svg">
<path d="M14.4493 10.1887V13.2934C14.4491 13.3515 14.4417 13.4094 14.4273 13.4656C14.3969 13.6157 14.316 13.7507 14.198 13.848C14.08 13.9454 13.9322 13.999 13.7793 14H1.11537C0.952331 13.9999 0.7951 13.9394 0.673875 13.8301C0.552649 13.7209 0.475978 13.5706 0.458588 13.4082C0.451108 13.369 0.44815 13.3289 0.449772 13.289V10.1843C0.449772 10.0086 0.519433 9.84006 0.64343 9.71582C0.767426 9.59158 0.935602 9.52179 1.11096 9.52179C1.28632 9.52179 1.45449 9.59158 1.57849 9.71582C1.70249 9.84006 1.77215 10.0086 1.77215 10.1843V12.6707H13.1314V10.1843C13.1315 10.0533 13.1703 9.92535 13.243 9.81651C13.3156 9.70768 13.4189 9.62286 13.5396 9.57277C13.6604 9.52267 13.7932 9.50956 13.9214 9.53507C14.0496 9.56058 14.1673 9.62358 14.2598 9.71611C14.38 9.84417 14.4477 10.0129 14.4493 10.1887Z" fill="#999999"/>
<path d="M11.2625 7.0795L8.01386 10.3344C8.00945 10.3432 8.00063 10.3476 7.99622 10.3521C7.88047 10.4681 7.73061 10.544 7.56866 10.5685C7.55543 10.5685 7.54221 10.5729 7.52898 10.5729C7.5027 10.5765 7.47617 10.578 7.44964 10.5773L7.37471 10.5729C7.36148 10.5729 7.34826 10.5685 7.33504 10.5685C7.17278 10.5449 7.02264 10.469 6.90747 10.3521L6.88984 10.3344L3.64119 7.0795C3.56696 7.00813 3.50769 6.92265 3.46685 6.82804C3.42601 6.73343 3.40443 6.63161 3.40336 6.52854C3.4023 6.42547 3.42177 6.32323 3.46065 6.2278C3.49953 6.13237 3.55703 6.04567 3.62977 5.97278C3.70252 5.8999 3.78905 5.84229 3.8843 5.80334C3.97954 5.76439 4.08159 5.74487 4.18447 5.74594C4.28734 5.747 4.38896 5.76863 4.48339 5.80955C4.57781 5.85046 4.66313 5.90985 4.73436 5.98423L6.68707 7.9407V0.772871C6.688 0.568179 6.76957 0.372136 6.91403 0.227395C7.05849 0.082655 7.25416 0.000929375 7.45846 0C7.6629 0.00124872 7.85888 0.0820051 8.00504 0.225237C8.07702 0.296924 8.13398 0.382292 8.17258 0.476332C8.21118 0.570372 8.23065 0.67119 8.22984 0.772871V7.9407L10.1826 5.98423C10.328 5.83989 10.5244 5.75891 10.7291 5.75891C10.9338 5.75891 11.1303 5.83989 11.2757 5.98423C11.415 6.13322 11.4914 6.3304 11.4889 6.53453C11.4865 6.73866 11.4053 6.93392 11.2625 7.0795Z" fill="#999999"/>
</svg>
