<?xml version="1.0" standalone="no"?><!DOCTYPE svg PUBLIC "-//W3C//DTD SVG 1.1//EN" "http://www.w3.org/Graphics/SVG/1.1/DTD/svg11.dtd"><svg class="icon" width="200px" height="200.00px" viewBox="0 0 1024 1024" version="1.1" xmlns="http://www.w3.org/2000/svg"><path d="M704 128l-128 0 0-64c0-35.2-28.8-64-64-64l-128 0c-35.2 0-64 28.8-64 64l0 64-128 0 0 128 512 0 0-128zM512 128l-128 0 0-63.872c0.032-0.032 0.064-0.064 0.128-0.128l127.776 0c0.032 0.032 0.096 0.064 0.128 0.128l0 63.872zM832 320l0-160c0-17.6-14.4-32-32-32l-64 0 0 64 32 0 0 128-192 0-192 192 0 256-256 0 0-576 32 0 0-64-64 0c-17.6 0-32 14.4-32 32l0 640c0 17.6 14.4 32 32 32l288 0 0 192 640 0 0-704-192 0zM576 410.496l0 101.504-101.504 0 101.504-101.504zM960 960l-512 0 0-384 192 0 0-192 320 0 0 576z" fill="#1296db" /></svg>