<svg width="13" height="14" viewBox="0 0 13 14" fill="none" xmlns="http://www.w3.org/2000/svg">
<path d="M11.4447 9.95895C11.1191 9.87719 10.7784 9.8764 10.4523 9.95663C10.1263 10.0369 9.82491 10.1957 9.57441 10.4192L5.84547 7.91386C6.06629 7.35214 6.06629 6.72765 5.84547 6.16592L9.61519 3.63141C9.99618 3.94141 10.476 4.10393 10.967 4.08927C11.4579 4.07461 11.9272 3.88374 12.289 3.55156C12.6508 3.21938 12.881 2.76808 12.9375 2.28017C12.9939 1.79225 12.8729 1.30031 12.5965 0.894282C12.3201 0.488254 11.9068 0.195263 11.4322 0.0688713C10.9575 -0.0575204 10.4533 -0.00886914 10.0116 0.205931C9.56985 0.420731 9.22019 0.78733 9.02652 1.23871C8.83285 1.69009 8.80811 2.19609 8.9568 2.66422L5.23952 5.1696C5.14012 5.05687 5.02876 4.95528 4.90741 4.86662C4.48535 4.53811 3.97699 4.33923 3.44406 4.29411C2.91113 4.24899 2.37656 4.35959 1.90529 4.61247C1.43401 4.86535 1.0463 5.24963 0.789245 5.71864C0.532188 6.18765 0.416845 6.72121 0.457224 7.25452C0.497604 7.78783 0.691967 8.29794 1.01671 8.7229C1.34145 9.14786 1.7826 9.46938 2.28658 9.64842C2.79056 9.82746 3.33568 9.85631 3.85574 9.73146C4.3758 9.60662 4.84843 9.33346 5.21621 8.94515L8.9568 11.4622C8.86059 11.8558 8.88316 12.2692 9.02167 12.65C9.16017 13.0309 9.4084 13.3622 9.73502 13.6021C10.0616 13.8419 10.452 13.9797 10.8568 13.9979C11.2617 14.0162 11.6629 13.914 12.0097 13.7045C12.3566 13.4949 12.6335 13.1872 12.8057 12.8204C12.9779 12.4535 13.0375 12.0439 12.9771 11.6432C12.9166 11.2424 12.7388 10.8686 12.4661 10.5689C12.1934 10.2691 11.8379 10.0569 11.4447 9.95895ZM10.9378 1.07942C11.1245 1.07942 11.307 1.13478 11.4622 1.23849C11.6174 1.34221 11.7384 1.48962 11.8098 1.66209C11.8813 1.83457 11.9 2.02435 11.8636 2.20745C11.8271 2.39054 11.7372 2.55873 11.6052 2.69073C11.4732 2.82274 11.305 2.91264 11.1219 2.94906C10.9388 2.98548 10.7491 2.96678 10.5766 2.89534C10.4041 2.8239 10.2567 2.70292 10.153 2.5477C10.0493 2.39248 9.99391 2.20999 9.99391 2.02331C9.99391 1.77297 10.0934 1.53289 10.2704 1.35588C10.4474 1.17886 10.6875 1.07942 10.9378 1.07942ZM4.4005 8.10614C4.17275 8.33872 3.87934 8.49611 3.5596 8.55723C3.23986 8.61834 2.90909 8.58026 2.61161 8.44807C2.31413 8.31589 2.06417 8.09592 1.89523 7.81766C1.7263 7.53941 1.64646 7.21616 1.66643 6.89124C1.6864 6.56633 1.80521 6.25529 2.00694 5.99981C2.20868 5.74433 2.48369 5.55663 2.79512 5.46186C3.10654 5.36709 3.43949 5.36979 3.74934 5.4696C4.05919 5.5694 4.33112 5.76154 4.52869 6.02026C4.76161 6.32529 4.87686 6.70402 4.85332 7.08709C4.82978 7.47016 4.66903 7.83192 4.4005 8.10614ZM10.9378 12.8722C10.7511 12.8722 10.5686 12.8168 10.4134 12.7131C10.2582 12.6094 10.1372 12.462 10.0658 12.2895C9.99432 12.117 9.97563 11.9273 10.012 11.7442C10.0485 11.5611 10.1384 11.3929 10.2704 11.2609C10.4024 11.1289 10.5706 11.039 10.7537 11.0025C10.9368 10.9661 11.1265 10.9848 11.299 11.0563C11.4715 11.1277 11.6189 11.2487 11.7226 11.4039C11.8263 11.5591 11.8817 11.7416 11.8817 11.9283C11.8817 12.0523 11.8573 12.175 11.8098 12.2895C11.7624 12.404 11.6929 12.5081 11.6052 12.5957C11.5176 12.6834 11.4135 12.7529 11.299 12.8003C11.1845 12.8478 11.0618 12.8722 10.9378 12.8722Z" fill="#999999"/>
</svg>
