<svg width="15" height="14" viewBox="0 0 15 14" fill="none" xmlns="http://www.w3.org/2000/svg">
<path d="M13.8162 1.9982H9.89523V1.68446C9.89523 1.23772 9.71735 0.809266 9.40074 0.493368C9.08413 0.17747 8.65471 0 8.20695 0L6.69173 0C6.24397 0 5.81455 0.17747 5.49794 0.493368C5.18133 0.809266 5.00346 1.23772 5.00346 1.68446V1.9982H1.08244C0.914534 1.9982 0.753502 2.06475 0.634772 2.18321C0.516042 2.30167 0.449341 2.46234 0.449341 2.62987C0.449341 2.7974 0.516042 2.95807 0.634772 3.07653C0.753502 3.19499 0.914534 3.26154 1.08244 3.26154H2.3381L2.35287 11.2627C2.35287 11.6222 2.42383 11.9781 2.5617 12.3102C2.69957 12.6423 2.90165 12.9441 3.1564 13.1983C3.41116 13.4525 3.71359 13.6541 4.04644 13.7916C4.37929 13.9292 4.73604 14 5.09631 14H9.80237C10.1626 14 10.5194 13.9292 10.8522 13.7916C11.1851 13.6541 11.4875 13.4525 11.7423 13.1983C11.997 12.9441 12.1991 12.6423 12.337 12.3102C12.4749 11.9781 12.5458 11.6222 12.5458 11.2627L12.5606 3.26154H13.8162C13.9841 3.26154 14.1452 3.19499 14.2639 3.07653C14.3826 2.95807 14.4493 2.7974 14.4493 2.62987C14.4493 2.46234 14.3826 2.30167 14.2639 2.18321C14.1452 2.06475 13.9841 1.9982 13.8162 1.9982ZM6.26966 1.68446C6.26966 1.57278 6.31413 1.46566 6.39328 1.38669C6.47243 1.30772 6.57979 1.26335 6.69173 1.26335H8.20695C8.31889 1.26335 8.42625 1.30772 8.5054 1.38669C8.58455 1.46566 8.62902 1.57278 8.62902 1.68446V1.9982H6.26966V1.68446ZM11.2796 11.2543C11.2796 11.6452 11.124 12.0201 10.8469 12.2965C10.5699 12.5729 10.1942 12.7282 9.80237 12.7282H5.09209C4.7003 12.7282 4.32456 12.5729 4.04753 12.2965C3.77049 12.0201 3.61485 11.6452 3.61485 11.2543L3.60008 3.25312H11.2944L11.2796 11.2543Z" fill="#999999"/>
<path d="M6.18309 5.21136C6.01518 5.21136 5.85415 5.27792 5.73542 5.39638C5.61669 5.51484 5.54999 5.67551 5.54999 5.84304V10.0331C5.54999 10.2007 5.61669 10.3613 5.73542 10.4798C5.85415 10.5983 6.01518 10.6648 6.18309 10.6648C6.351 10.6648 6.51203 10.5983 6.63076 10.4798C6.74949 10.3613 6.81619 10.2007 6.81619 10.0331V5.84304C6.81619 5.67551 6.74949 5.51484 6.63076 5.39638C6.51203 5.27792 6.351 5.21136 6.18309 5.21136Z" fill="#999999"/>
<path d="M8.71562 5.21136C8.54771 5.21136 8.38668 5.27792 8.26795 5.39638C8.14922 5.51484 8.08252 5.67551 8.08252 5.84304V10.0331C8.08252 10.2007 8.14922 10.3613 8.26795 10.4798C8.38668 10.5983 8.54771 10.6648 8.71562 10.6648C8.88353 10.6648 9.04456 10.5983 9.16329 10.4798C9.28202 10.3613 9.34872 10.2007 9.34872 10.0331V5.84304C9.34872 5.67551 9.28202 5.51484 9.16329 5.39638C9.04456 5.27792 8.88353 5.21136 8.71562 5.21136Z" fill="#999999"/>
</svg>
