<svg width="15" height="14" viewBox="0 0 15 14" fill="none" xmlns="http://www.w3.org/2000/svg">
<path d="M14.4493 10.1887V13.2934C14.4491 13.3515 14.4417 13.4093 14.4273 13.4656C14.3969 13.6157 14.316 13.7507 14.198 13.848C14.08 13.9453 13.9322 13.999 13.7793 14H1.11537C0.952331 13.9998 0.7951 13.9393 0.673875 13.8301C0.552649 13.7209 0.475978 13.5706 0.458588 13.4082C0.451108 13.3689 0.44815 13.3289 0.449772 13.289V10.1843C0.449772 10.0086 0.519433 9.84008 0.64343 9.71585C0.767426 9.59161 0.935602 9.52182 1.11096 9.52182C1.28632 9.52182 1.45449 9.59161 1.57849 9.71585C1.70249 9.84008 1.77215 10.0086 1.77215 10.1843V12.6707H13.1314V10.1843C13.1315 10.0533 13.1703 9.92537 13.243 9.81654C13.3156 9.70771 13.4189 9.62289 13.5396 9.5728C13.6604 9.5227 13.7932 9.50959 13.9214 9.5351C14.0496 9.56061 14.1673 9.62361 14.2598 9.71614C14.38 9.8442 14.4477 10.0129 14.4493 10.1887V10.1887Z" fill="#00AAFF"/>
<path d="M3.64289 3.49793L6.89153 0.243081C6.89594 0.234248 6.90475 0.229832 6.90916 0.225415C7.02491 0.109319 7.17478 0.0334724 7.33673 0.00901448C7.34996 0.00901448 7.36318 0.00459814 7.3764 0.00459814C7.40268 0.000927434 7.42922 -0.000549761 7.45575 0.00018179V0.00018179L7.53068 0.00459814C7.5439 0.00459814 7.55713 0.00901448 7.57035 0.00901448C7.73261 0.0325227 7.88275 0.108513 7.99792 0.225415L8.01555 0.243081L11.2642 3.49793C11.4042 3.64417 11.4815 3.83958 11.4794 4.04224C11.4773 4.2449 11.396 4.43866 11.253 4.58197C11.11 4.72528 10.9166 4.80672 10.7143 4.80881C10.512 4.81091 10.317 4.7335 10.171 4.59318L8.21832 2.63674V9.80447C8.21739 10.0092 8.13582 10.2052 7.99136 10.3499C7.8469 10.4947 7.65123 10.5764 7.44693 10.5773C7.24248 10.5761 7.04651 10.4953 6.90035 10.3521C6.82837 10.2804 6.77141 10.195 6.73281 10.101C6.6942 10.007 6.67473 9.90615 6.67554 9.80447V2.63674L4.72283 4.59318C4.57739 4.73752 4.38096 4.8185 4.17625 4.8185C3.97154 4.8185 3.7751 4.73752 3.62967 4.59318C3.49038 4.44419 3.41398 4.24702 3.41644 4.04289C3.4189 3.83877 3.50004 3.6435 3.64289 3.49793V3.49793Z" fill="#00AAFF"/>
</svg>
